HIERARCHY
ROOT SpineBase
{
  OFFSET 0.000000 0.000000 0.000000
  CHANNELS 6 Xposition Yposition Zposition Zrotation Xrotation Yrotation
  JOINT SpineMid
  {
    OFFSET 0.000000 31.864433 0.000000
    CHANNELS 3 Zrotation Xrotation Yrotation
    JOINT SpineShoulder
    {
      OFFSET 0.148062 23.700809 -0.599572
      CHANNELS 3 Zrotation Xrotation Yrotation
      JOINT Neck
      {
        OFFSET 0.070615 7.853657 -0.524127
        CHANNELS 3 Zrotation Xrotation Yrotation
        JOINT Head
        {
          OFFSET 5.237679 12.417656 3.394588
          CHANNELS 3 Zrotation Xrotation Yrotation
          End Site
          {
            OFFSET 0 0 0
          }
        }
      }
      JOINT ShoulderLeft
      {
        OFFSET -10.606104 -2.947249 -12.700944
        CHANNELS 3 Zrotation Xrotation Yrotation
        JOINT ElbowLeft
        {
          OFFSET -6.521007 -26.740347 -7.781751
          CHANNELS 3 Zrotation Xrotation Yrotation
          JOINT WristLeft
          {
            OFFSET 2.108994 -23.173679 -5.396158
            CHANNELS 3 Zrotation Xrotation Yrotation
            JOINT HandLeft
            {
              OFFSET 1.457624 -3.649219 2.414436
              CHANNELS 3 Zrotation Xrotation Yrotation
              JOINT HandTipLeft
              {
                OFFSET 0.850386 -8.424309 -0.899404
                CHANNELS 3 Zrotation Xrotation Yrotation
                End Site
                {
                  OFFSET 0 0 0
                }
              }
              JOINT ThumbLeft
              {
                OFFSET 4.730414 1.912209 3.540161
                CHANNELS 3 Zrotation Xrotation Yrotation
                End Site
                {
                  OFFSET 0 0 0
                }
              }
            }
          }
        }
      }
      JOINT ShoulderRight
      {
        OFFSET 11.458151 -6.466393 11.008614
        CHANNELS 3 Zrotation Xrotation Yrotation
        JOINT ElbowRight
        {
          OFFSET 2.065466 -31.008983 6.425421
          CHANNELS 3 Zrotation Xrotation Yrotation
          JOINT WristRight
          {
            OFFSET 0.724387 -23.205772 -5.498013
            CHANNELS 3 Zrotation Xrotation Yrotation
            JOINT HandRight
            {
              OFFSET -1.098212 -7.289349 1.588913
              CHANNELS 3 Zrotation Xrotation Yrotation
              JOINT HandTipRight
              {
                OFFSET 0.117953 -5.455449 -1.083920
                CHANNELS 3 Zrotation Xrotation Yrotation
                End Site
                {
                  OFFSET 0 0 0
                }
              }
              JOINT ThumbRight
              {
                OFFSET -3.323820 -2.333736 -2.164124
                CHANNELS 3 Zrotation Xrotation Yrotation
                End Site
                {
                  OFFSET 0 0 0
                }
              }
            }
          }
        }
      }
    }
  }
  JOINT HipLeft
  {
    OFFSET -4.453847 1.757847 -8.199289
    CHANNELS 3 Zrotation Xrotation Yrotation
    JOINT KneeLeft
    {
      OFFSET -13.041804 -36.113411 -6.695217
      CHANNELS 3 Zrotation Xrotation Yrotation
      JOINT AnkleLeft
      {
        OFFSET -9.078661 -36.945846 4.135196
        CHANNELS 3 Zrotation Xrotation Yrotation
        JOINT FootLeft
        {
          OFFSET 1.267909 -7.565816 -6.999215
          CHANNELS 3 Zrotation Xrotation Yrotation
          End Site
          {
            OFFSET 0 0 0
          }
        }
      }
    }
  }
  JOINT HipRight
  {
    OFFSET 5.287926 0.072205 1.235658
    CHANNELS 3 Zrotation Xrotation Yrotation
    JOINT KneeRight
    {
      OFFSET -6.919029 -39.250881 1.044085
      CHANNELS 3 Zrotation Xrotation Yrotation
      JOINT AnkleRight
      {
        OFFSET -7.333168 -36.885118 12.168757
        CHANNELS 3 Zrotation Xrotation Yrotation
        JOINT FootRight
        {
          OFFSET 2.545765 -8.107094 -4.459691
          CHANNELS 3 Zrotation Xrotation Yrotation
          End Site
          {
            OFFSET 0 0 0
          }
        }
      }
    }
  }
}
MOTION
Frames: 6
Frame Time: 0.033333
-42.188750 86.732005 339.714769 -1.609577 5.304345 -39.224220 -0.534470 -0.214079 39.185852 -0.326728 0.064978 -0.141639 -8.409581 0.579085 0.247490 0.000000 0.000000 0.000000 -1.845974 -2.722286 0.588991 6.722346 -2.541779 -0.871814 -23.684612 29.849748 5.911168 27.290792 -36.175410 8.297773 0.000000 0.000000 0.000000 0.000000 0.000000 0.000000 107.915236 39.993383 -12.379290 126.185632 23.531724 51.768534 18.385301 -15.922447 -74.568585 -27.528204 -15.441075 76.636324 0.000000 0.000000 0.000000 0.000000 0.000000 0.000000 9.519870 -2.436895 39.832546 -4.192315 2.634850 -0.076335 -2.435771 -0.624826 2.153990 0.000000 0.000000 0.000000 7.096601 -3.712213 39.975745 -1.505595 2.075027 -0.377909 1.668743 -1.252363 -1.294883 0.000000 0.000000 0.000000
-42.149557 86.774515 339.708208 -2.256442 5.700777 -38.555193 -0.756994 -0.252550 38.520529 -0.416784 0.107901 -0.189035 -7.752325 1.519303 -0.124757 0.000000 0.000000 0.000000 -1.788899 -2.882076 0.781353 7.296584 -2.821752 -0.910999 -24.272614 30.761994 6.176664 28.895290 -38.275257 9.186818 0.000000 0.000000 0.000000 0.000000 0.000000 0.000000 112.441419 39.183220 -11.197313 125.440849 19.130673 44.961268 20.157767 -21.200249 -72.928635 -31.281679 -14.716801 72.607622 0.000000 0.000000 0.000000 0.000000 0.000000 0.000000 10.187046 -2.339312 39.161932 -4.218329 2.512164 -0.031880 -2.667182 -0.843309 2.331575 0.000000 0.000000 0.000000 7.763546 -3.757960 39.360676 -1.432785 2.095528 -0.380688 1.160735 -2.152841 -1.302098 0.000000 0.000000 0.000000
-42.089230 86.849166 339.733098 -2.793771 6.005199 -38.085210 -0.635609 -0.296696 38.071628 -0.409628 0.080937 -0.209200 -8.549246 3.717599 -0.512578 0.000000 0.000000 0.000000 -2.516556 -2.570091 0.982337 8.018732 -3.056760 -0.954356 -24.611541 31.685508 6.480712 28.895620 -39.897282 9.295321 0.000000 0.000000 0.000000 0.000000 0.000000 0.000000 115.572532 37.579988 -9.059624 125.521225 13.117932 37.392746 23.139355 -11.967425 -63.708394 -23.304947 -14.885045 58.468828 0.000000 0.000000 0.000000 0.000000 0.000000 0.000000 10.686983 -2.240258 38.687421 -4.201267 2.387181 0.004517 -2.646953 -1.001375 2.285229 0.000000 0.000000 0.000000 8.257325 -3.745847 38.922314 -1.352339 2.057690 -0.373849 0.228345 -3.280517 -1.167107 0.000000 0.000000 0.000000
-42.032437 86.915805 339.774806 -3.633671 6.562551 -37.664944 -1.567441 -0.305501 37.636409 -0.548365 0.178250 -0.295569 -5.186315 2.645800 -0.900279 0.000000 0.000000 0.000000 -2.012579 -3.153092 1.242309 8.751912 -3.440091 -0.944591 -24.749957 32.844496 7.129287 30.018868 -41.708635 9.832490 0.000000 0.000000 0.000000 0.000000 0.000000 0.000000 118.482627 35.809448 -4.303817 125.494142 6.173976 32.050445 27.706308 7.321994 -48.580388 -12.642216 -24.255830 34.383701 0.000000 0.000000 0.000000 0.000000 0.000000 0.000000 11.583168 -2.155670 38.305095 -4.178388 2.267054 0.038242 -2.359894 -0.835058 2.046976 0.000000 0.000000 0.000000 9.156164 -3.743779 38.573689 -1.277490 2.022942 -0.367512 -0.022087 -3.373498 -1.065435 0.000000 0.000000 0.000000
-41.982977 87.003502 339.816277 -4.585710 7.253089 -37.408330 -1.641395 -0.280171 37.429213 -0.679136 0.332881 -0.351519 -2.617727 2.177936 -1.298202 0.000000 0.000000 0.000000 -1.973831 -3.350971 1.403783 9.350394 -3.865662 -0.868594 -24.464951 34.093632 8.129996 29.569240 -42.652318 9.391803 0.000000 0.000000 0.000000 0.000000 0.000000 0.000000 120.349191 33.425883 1.002715 127.491627 -0.031083 27.824265 23.629586 21.346609 -38.468651 -3.222386 -32.943372 18.243188 0.000000 0.000000 0.000000 0.000000 0.000000 0.000000 12.666685 -2.115140 38.131017 -4.141804 2.181581 0.058191 -1.919333 -0.264867 1.735387 0.000000 0.000000 0.000000 10.257850 -3.734379 38.416649 -1.235058 1.981826 -0.360356 0.186386 -2.928460 -1.031503 0.000000 0.000000 0.000000
-41.944395 87.050533 339.833534 -5.337638 7.829628 -37.406652 -1.285203 -0.226667 37.501429 -0.721671 0.433512 -0.372368 -1.045762 2.010766 -1.611490 0.000000 0.000000 0.000000 -2.249867 -3.209535 1.454289 9.779751 -4.150288 -0.748838 -24.108909 35.115892 9.133330 28.881878 -44.157774 8.709601 0.000000 0.000000 0.000000 0.000000 0.000000 0.000000 120.825695 30.530275 6.330079 130.449645 -5.294188 26.017762 23.799935 23.678048 -35.237966 -4.921517 -44.551430 -1.829358 0.000000 0.000000 0.000000 0.000000 0.000000 0.000000 13.541177 -2.103964 38.220546 -4.082155 2.141918 0.058899 -1.243556 0.786304 1.284906 0.000000 0.000000 0.000000 11.144585 -3.675683 38.495042 -1.215585 1.907355 -0.347857 0.651045 -2.342849 -1.090918 0.000000 0.000000 0.000000
